<svg width="74" height="14" viewBox="0 0 74 14" fill="none" xmlns="http://www.w3.org/2000/svg">
<g clip-path="url(#clip0_203_1777)">
<path d="M6.52926 3.31381C6.59279 3.50246 6.72561 3.65646 6.90273 3.74501C7.00859 3.79698 7.12216 3.82393 7.23574 3.82393C7.31468 3.82393 7.39553 3.81046 7.47253 3.78543L10.978 2.61694C11.3688 2.48795 11.5787 2.06446 11.4497 1.67369C11.3207 1.2829 10.8953 1.07308 10.5063 1.20206L7.00089 2.37054C6.61204 2.49953 6.40029 2.92303 6.52926 3.31381Z" fill="white"/>
<path d="M7.41281 11.2335C7.50136 11.0546 7.51677 10.8543 7.45323 10.6637C7.32427 10.2749 6.90076 10.0631 6.50998 10.1921L3.00452 11.3606C2.81585 11.4242 2.66185 11.5569 2.5733 11.7341C2.48475 11.9112 2.46935 12.1133 2.53288 12.3038C2.63683 12.6157 2.92752 12.814 3.23937 12.814C3.31828 12.814 3.39722 12.8025 3.47422 12.7756L6.97968 11.607C7.16833 11.5435 7.32233 11.4107 7.4109 11.2335H7.41281Z" fill="white"/>
<path d="M4.06526 4.7176C4.17112 4.7715 4.28471 4.79652 4.39636 4.79652C4.66971 4.79652 4.93345 4.64637 5.06435 4.38457L6.71602 1.0793C6.80457 0.9022 6.81997 0.700072 6.75643 0.509495C6.6929 0.320843 6.56008 0.16684 6.38298 0.0782887C6.0153 -0.104588 5.56678 0.0436385 5.3839 0.411318L3.73222 3.71658C3.54934 4.08427 3.69757 4.5328 4.06526 4.71567V4.7176Z" fill="white"/>
<path d="M9.91533 9.2608C9.73821 9.17225 9.53415 9.15685 9.3455 9.22038C9.15685 9.2839 9.00286 9.41673 8.91431 9.59383L7.26263 12.8991C7.17408 13.0762 7.15868 13.2783 7.22219 13.4689C7.28573 13.6595 7.41855 13.8115 7.59567 13.9001C7.70153 13.9521 7.81318 13.979 7.92868 13.979C8.00762 13.979 8.08847 13.9655 8.16547 13.9405C8.35412 13.877 8.50812 13.7442 8.59667 13.567L10.2483 10.2618C10.3369 10.0847 10.3523 9.88258 10.2888 9.692C10.2252 9.50335 10.0924 9.34935 9.91533 9.2608Z" fill="white"/>
<path d="M2.37305 6.97947C2.477 7.29132 2.76768 7.4896 3.08145 7.4896C3.15845 7.4896 3.2393 7.47805 3.31632 7.4511C3.70517 7.32212 3.91692 6.89862 3.78793 6.50783L2.61945 3.00237C2.49046 2.61352 2.06697 2.39983 1.67619 2.53073C1.28733 2.65972 1.07558 3.08322 1.20456 3.47401L2.37305 6.97947Z" fill="white"/>
<path d="M11.6075 6.99888C11.4785 6.6081 11.0549 6.39828 10.6641 6.52725C10.4755 6.59078 10.3215 6.7236 10.233 6.90072C10.1444 7.07782 10.129 7.27993 10.1926 7.47052L11.361 10.976C11.465 11.2879 11.7557 11.4862 12.0675 11.4862C12.1465 11.4862 12.2254 11.4745 12.3024 11.4476C12.6912 11.3186 12.903 10.8951 12.774 10.5043L11.6055 6.99888H11.6075Z" fill="white"/>
<path d="M4.05174 10.3275C4.13065 10.3275 4.2115 10.314 4.2885 10.289C4.47717 10.2255 4.63117 10.0926 4.71972 9.91553C4.80827 9.73845 4.82367 9.53631 4.76014 9.34573C4.69662 9.15708 4.56379 9.00308 4.38669 8.91453L1.08142 7.26285C0.713741 7.07999 0.265209 7.2282 0.0823322 7.59589C-0.0062189 7.7749 -0.0216191 7.9751 0.0419067 8.16569C0.105433 8.35434 0.238259 8.50834 0.415361 8.59689L3.72064 10.2486C3.8265 10.3006 3.94009 10.3275 4.05365 10.3275H4.05174Z" fill="white"/>
<path d="M13.9405 5.81545C13.8771 5.62682 13.7443 5.4728 13.5671 5.38425L10.2618 3.73258C9.89417 3.54971 9.44564 3.69795 9.26275 4.06561C9.1742 4.24465 9.1588 4.44485 9.22234 4.63544C9.28585 4.82406 9.41869 4.97809 9.59579 5.06664L12.901 6.71831C13.007 6.77221 13.1205 6.79722 13.2321 6.79722C13.5055 6.79722 13.7693 6.64707 13.9001 6.38527C13.9887 6.20817 14.0041 6.00604 13.9405 5.81545Z" fill="white"/>
<path d="M23.9853 12.7417H20.503L20.3375 12.5761V1.29739L20.503 1.13184H23.9853C28.1319 1.13184 29.4602 3.45342 29.4602 6.93771C29.4602 10.422 28.1337 12.7435 23.9853 12.7435V12.7417ZM23.8199 2.62373H22.1604L21.9949 2.78928V11.0823L22.1604 11.2478H23.8199C26.9713 11.2478 27.8008 9.75594 27.8008 6.93578C27.8008 4.11562 26.9713 2.62373 23.8199 2.62373Z" fill="white"/>
<path d="M34.602 4.28223C37.0891 4.28223 38.5829 5.9416 38.5829 8.5943C38.5829 11.247 37.0891 12.9063 34.602 12.9063C32.1147 12.9063 30.6211 11.247 30.6211 8.5943C30.6211 5.9416 32.113 4.28223 34.602 4.28223ZM34.602 11.4145C36.0939 11.4145 36.9234 10.4192 36.9234 8.5943C36.9234 6.76937 36.0939 5.77414 34.602 5.77414C33.1101 5.77414 32.2803 6.76937 32.2803 8.5943C32.2803 10.4192 33.1101 11.4145 34.602 11.4145Z" fill="white"/>
<path d="M51.5209 12.7408H50.1944L50.029 12.5752V7.59906C50.029 6.60382 49.8633 5.77414 48.537 5.77414C47.3762 5.77414 46.7121 6.60382 46.7121 7.93016V12.5752L46.5467 12.7408H45.2202L45.0548 12.5752V7.59906C45.0548 6.60382 44.8891 5.77414 43.5628 5.77414C42.7331 5.77414 41.7379 6.27079 41.7379 7.93016V12.5752L41.5723 12.7408H40.246L40.0803 12.5752V4.61335L40.246 4.4478H41.4068L41.5723 4.61335L41.7379 5.27746H41.9034C42.2345 4.78081 42.8985 4.28223 44.0594 4.28223C45.3859 4.28223 45.8845 4.94636 46.2156 5.44304H46.381C46.8778 4.7789 47.7073 4.28223 48.8681 4.28223C51.1898 4.28223 51.6884 5.77605 51.6884 7.59906V12.5752L51.5228 12.7408H51.5209Z" fill="white"/>
<path d="M55.0032 3.12228H53.6769L53.5112 2.95673V1.6304L53.6769 1.46484H55.0032L55.1688 1.6304V2.95673L55.0032 3.12228ZM55.0032 12.7435H53.6769L53.5112 12.578V4.61416L53.6769 4.44864H55.0032L55.1688 4.61416V12.5761L55.0032 12.7416V12.7435Z" fill="white"/>
<path d="M64.126 12.7408H62.7995L62.6341 12.5752V7.76461C62.6341 6.91952 62.4684 5.77414 60.9749 5.77414C59.4808 5.77414 58.8186 6.58649 58.8186 8.5943V12.5752L58.6532 12.7408H57.3267L57.1613 12.5752V4.61335L57.3267 4.4478H58.4875L58.6532 4.61335L58.8186 5.27746H58.9843C59.4654 4.648 60.2604 4.28223 61.1403 4.28223C63.4617 4.28223 64.2915 5.77605 64.2915 7.76652V12.5772L64.126 12.7427V12.7408Z" fill="white"/>
<path d="M69.6008 4.28223C72.0879 4.28223 73.5817 5.9416 73.5817 8.5943C73.5817 11.247 72.0879 12.9063 69.6008 12.9063C67.1137 12.9063 65.6199 11.247 65.6199 8.5943C65.6199 5.9416 67.1118 4.28223 69.6008 4.28223ZM69.6008 11.4145C71.0927 11.4145 71.9222 10.4192 71.9222 8.5943C71.9222 6.76937 71.0927 5.77414 69.6008 5.77414C68.1088 5.77414 67.2791 6.76937 67.2791 8.5943C67.2791 10.4192 68.1088 11.4145 69.6008 11.4145Z" fill="white"/>
</g>
<defs>
<clipPath id="clip0_203_1777">
<rect width="74" height="14" fill="white"/>
</clipPath>
</defs>
</svg>
